<svg width="106" height="75" viewBox="0 0 106 75" fill="none" xmlns="http://www.w3.org/2000/svg">
    <rect width="106" height="75" fill="none" />
    <path d="M0.448001 73V1.47999H44.608V8.68H8.128V33.544H41.728V40.744H8.128V73H0.448001Z" fill="black" />
    <path
        d="M80.2293 74.152C75.6853 74.152 71.4613 73.32 67.5573 71.656C63.7173 69.992 60.3893 67.688 57.5733 64.744C54.8213 61.736 52.8053 58.248 51.5253 54.28L62.3733 49.576C64.1013 53.672 66.5973 56.904 69.8613 59.272C73.1253 61.576 76.8053 62.728 80.9013 62.728C83.2053 62.728 85.1893 62.376 86.8533 61.672C88.5813 60.904 89.8933 59.88 90.7893 58.6C91.7493 57.32 92.2293 55.784 92.2293 53.992C92.2293 51.88 91.5893 50.152 90.3093 48.808C89.0933 47.4 87.2373 46.312 84.7413 45.544L71.0133 41.128C65.4453 39.4 61.2533 36.808 58.4373 33.352C55.6213 29.896 54.2133 25.832 54.2133 21.16C54.2133 17.064 55.2053 13.448 57.1893 10.312C59.2373 7.176 62.0533 4.744 65.6373 3.016C69.2853 1.224 73.4453 0.327997 78.1173 0.327997C82.4053 0.327997 86.3413 1.096 89.9253 2.632C93.5093 4.104 96.5813 6.184 99.1413 8.872C101.765 11.496 103.717 14.6 104.997 18.184L94.2453 22.984C92.8373 19.4 90.7253 16.648 87.9093 14.728C85.0933 12.744 81.8293 11.752 78.1173 11.752C75.9413 11.752 74.0213 12.136 72.3573 12.904C70.6933 13.608 69.3813 14.632 68.4213 15.976C67.5253 17.256 67.0773 18.792 67.0773 20.584C67.0773 22.568 67.7173 24.328 68.9973 25.864C70.2773 27.336 72.2293 28.488 74.8533 29.32L88.0053 33.448C93.7013 35.304 97.9573 37.864 100.773 41.128C103.653 44.392 105.093 48.424 105.093 53.224C105.093 57.32 104.037 60.936 101.925 64.072C99.8133 67.208 96.9013 69.672 93.1893 71.464C89.4773 73.256 85.1573 74.152 80.2293 74.152Z"
        fill="#CE2D4F" />
</svg>